<?xml version="1.0" encoding="UTF-8" standalone="no"?>
<!DOCTYPE svg PUBLIC "-//W3C//DTD SVG 1.1//EN"
 "http://www.w3.org/Graphics/SVG/1.1/DTD/svg11.dtd">
<!-- Generated by graphviz version 2.40.1 (20161225.0304)
 -->
<!-- Title: dependencies Pages: 1 -->
<svg width="997pt" height="284pt"
 viewBox="0.00 0.00 997.00 284.00" xmlns="http://www.w3.org/2000/svg" xmlns:xlink="http://www.w3.org/1999/xlink">
<g id="graph0" class="graph" transform="scale(1 1) rotate(0) translate(4 280)">
<title>dependencies</title>
<polygon fill="#ffffff" stroke="transparent" points="-4,4 -4,-280 993,-280 993,4 -4,4"/>
<text text-anchor="start" x="473.5091" y="-42.4" font-family="sans-serif" font-weight="bold" font-size="14.00" fill="#000000">Legend</text>
<polygon fill="#ffffb3" stroke="transparent" points="260.5,-10 260.5,-30 280.5,-30 280.5,-10 260.5,-10"/>
<text text-anchor="start" x="284.129" y="-15.4" font-family="sans-serif" font-size="14.00" fill="#000000"> &#160;Declarations</text>
<polygon fill="#8dd3c7" stroke="transparent" points="373.5,-10 373.5,-30 393.5,-30 393.5,-10 373.5,-10"/>
<text text-anchor="start" x="397.2251" y="-15.4" font-family="sans-serif" font-size="14.00" fill="#000000"> &#160;Module</text>
<polygon fill="#80b1d3" stroke="transparent" points="459.5,-10 459.5,-30 479.5,-30 479.5,-10 459.5,-10"/>
<text text-anchor="start" x="483.2812" y="-15.4" font-family="sans-serif" font-size="14.00" fill="#000000"> &#160;Bootstrap</text>
<polygon fill="#fdb462" stroke="transparent" points="556.5,-10 556.5,-30 576.5,-30 576.5,-10 556.5,-10"/>
<text text-anchor="start" x="580.1732" y="-15.4" font-family="sans-serif" font-size="14.00" fill="#000000"> &#160;Providers</text>
<polygon fill="#fb8072" stroke="transparent" points="652.5,-10 652.5,-30 672.5,-30 672.5,-10 652.5,-10"/>
<text text-anchor="start" x="676.2258" y="-15.4" font-family="sans-serif" font-size="14.00" fill="#000000"> &#160;Exports</text>
<g id="clust1" class="cluster">
<title>cluster_AppModule</title>
<polygon fill="none" stroke="#000000" stroke-dasharray="1,5" points="8,-70 8,-268 981,-268 981,-70 8,-70"/>
</g>
<g id="clust2" class="cluster">
<title>cluster_AppModule_declarations</title>
<polygon fill="none" stroke="#000000" points="433,-78 433,-130 973,-130 973,-78 433,-78"/>
</g>
<g id="clust7" class="cluster">
<title>cluster_AppModule_imports</title>
<polygon fill="none" stroke="#000000" points="156,-78 156,-130 425,-130 425,-78 156,-78"/>
</g>
<g id="clust9" class="cluster">
<title>cluster_AppModule_bootstrap</title>
<polygon fill="none" stroke="#000000" points="363,-208 363,-260 487,-260 487,-208 363,-208"/>
</g>
<g id="clust10" class="cluster">
<title>cluster_AppModule_providers</title>
<polygon fill="none" stroke="#000000" points="16,-78 16,-130 148,-130 148,-78 16,-78"/>
</g>
<!-- AppComponent -->
<g id="node1" class="node">
<title>AppComponent</title>
<polygon fill="#ffffb3" stroke="#000000" points="964.9399,-122 859.0601,-122 859.0601,-86 964.9399,-86 964.9399,-122"/>
<text text-anchor="middle" x="912" y="-99.8" font-family="Times,serif" font-size="14.00" fill="#000000">AppComponent</text>
</g>
<!-- AppModule -->
<g id="node5" class="node">
<title>AppModule</title>
<polygon fill="#8dd3c7" stroke="#000000" points="466.6571,-187 463.6571,-191 442.6571,-191 439.6571,-187 383.3429,-187 383.3429,-151 466.6571,-151 466.6571,-187"/>
<text text-anchor="middle" x="425" y="-164.8" font-family="Times,serif" font-size="14.00" fill="#000000">AppModule</text>
</g>
<!-- AppComponent&#45;&gt;AppModule -->
<g id="edge1" class="edge">
<title>AppComponent&#45;&gt;AppModule</title>
<path fill="none" stroke="#000000" d="M912,-122.2921C912,-144.2057 912,-178 912,-178 912,-178 476.9428,-178 476.9428,-178"/>
<polygon fill="#000000" stroke="#000000" points="476.9429,-174.5001 466.9428,-178 476.9428,-181.5001 476.9429,-174.5001"/>
</g>
<!-- ChatboxComponent -->
<g id="node2" class="node">
<title>ChatboxComponent</title>
<polygon fill="#ffffb3" stroke="#000000" points="841.2744,-122 712.7256,-122 712.7256,-86 841.2744,-86 841.2744,-122"/>
<text text-anchor="middle" x="777" y="-99.8" font-family="Times,serif" font-size="14.00" fill="#000000">ChatboxComponent</text>
</g>
<!-- ChatboxComponent&#45;&gt;AppModule -->
<g id="edge2" class="edge">
<title>ChatboxComponent&#45;&gt;AppModule</title>
<path fill="none" stroke="#000000" d="M777,-122.1061C777,-141.3391 777,-169 777,-169 777,-169 476.7613,-169 476.7613,-169"/>
<polygon fill="#000000" stroke="#000000" points="476.7613,-165.5001 466.7613,-169 476.7613,-172.5001 476.7613,-165.5001"/>
</g>
<!-- HeaderComponent -->
<g id="node3" class="node">
<title>HeaderComponent</title>
<polygon fill="#ffffb3" stroke="#000000" points="694.7437,-122 573.2563,-122 573.2563,-86 694.7437,-86 694.7437,-122"/>
<text text-anchor="middle" x="634" y="-99.8" font-family="Times,serif" font-size="14.00" fill="#000000">HeaderComponent</text>
</g>
<!-- HeaderComponent&#45;&gt;AppModule -->
<g id="edge3" class="edge">
<title>HeaderComponent&#45;&gt;AppModule</title>
<path fill="none" stroke="#000000" d="M634,-122.027C634,-138.3976 634,-160 634,-160 634,-160 476.792,-160 476.792,-160"/>
<polygon fill="#000000" stroke="#000000" points="476.792,-156.5001 466.792,-160 476.7919,-163.5001 476.792,-156.5001"/>
</g>
<!-- LoginComponent -->
<g id="node4" class="node">
<title>LoginComponent</title>
<polygon fill="#ffffb3" stroke="#000000" points="555.2758,-122 440.7242,-122 440.7242,-86 555.2758,-86 555.2758,-122"/>
<text text-anchor="middle" x="498" y="-99.8" font-family="Times,serif" font-size="14.00" fill="#000000">LoginComponent</text>
</g>
<!-- LoginComponent&#45;&gt;AppModule -->
<g id="edge4" class="edge">
<title>LoginComponent&#45;&gt;AppModule</title>
<path fill="none" stroke="#000000" d="M453.7202,-122.1061C453.7202,-122.1061 453.7202,-140.991 453.7202,-140.991"/>
<polygon fill="#000000" stroke="#000000" points="450.2203,-140.9909 453.7202,-150.991 457.2203,-140.991 450.2203,-140.9909"/>
</g>
<!-- AppComponent  -->
<g id="node8" class="node">
<title>AppComponent </title>
<polygon fill="#80b1d3" stroke="#000000" points="479.439,-252 370.561,-252 370.561,-216 479.439,-216 479.439,-252"/>
<text text-anchor="middle" x="425" y="-229.8" font-family="Times,serif" font-size="14.00" fill="#000000">AppComponent </text>
</g>
<!-- AppModule&#45;&gt;AppComponent  -->
<g id="edge8" class="edge">
<title>AppModule&#45;&gt;AppComponent </title>
<path fill="none" stroke="#000000" stroke-dasharray="1,5" d="M425,-187.1061C425,-187.1061 425,-205.991 425,-205.991"/>
<polygon fill="#000000" stroke="#000000" points="421.5001,-205.9909 425,-215.991 428.5001,-205.991 421.5001,-205.9909"/>
</g>
<!-- AppRoutingModule -->
<g id="node6" class="node">
<title>AppRoutingModule</title>
<polygon fill="#8dd3c7" stroke="#000000" points="417.2744,-122 414.2744,-126 393.2744,-126 390.2744,-122 288.7256,-122 288.7256,-86 417.2744,-86 417.2744,-122"/>
<text text-anchor="middle" x="353" y="-99.8" font-family="Times,serif" font-size="14.00" fill="#000000">AppRoutingModule</text>
</g>
<!-- AppRoutingModule&#45;&gt;AppModule -->
<g id="edge5" class="edge">
<title>AppRoutingModule&#45;&gt;AppModule</title>
<path fill="none" stroke="#000000" d="M394.5769,-122.1061C394.5769,-122.1061 394.5769,-140.991 394.5769,-140.991"/>
<polygon fill="#000000" stroke="#000000" points="391.077,-140.9909 394.5769,-150.991 398.077,-140.991 391.077,-140.9909"/>
</g>
<!-- AppRoutingModule&#45;&gt;AppModule -->
<g id="edge6" class="edge">
<title>AppRoutingModule&#45;&gt;AppModule</title>
<path fill="none" stroke="#000000" d="M405.982,-122.1061C405.982,-122.1061 405.982,-140.991 405.982,-140.991"/>
<polygon fill="#000000" stroke="#000000" points="402.4821,-140.9909 405.982,-150.991 409.4821,-140.991 402.4821,-140.9909"/>
</g>
<!-- MaterialModule -->
<g id="node7" class="node">
<title>MaterialModule</title>
<polygon fill="#8dd3c7" stroke="#000000" points="270.4706,-122 267.4706,-126 246.4706,-126 243.4706,-122 163.5294,-122 163.5294,-86 270.4706,-86 270.4706,-122"/>
<text text-anchor="middle" x="217" y="-99.8" font-family="Times,serif" font-size="14.00" fill="#000000">MaterialModule</text>
</g>
<!-- MaterialModule&#45;&gt;AppModule -->
<g id="edge7" class="edge">
<title>MaterialModule&#45;&gt;AppModule</title>
<path fill="none" stroke="#000000" d="M217,-122.0225C217,-139.3734 217,-163 217,-163 217,-163 372.9081,-163 372.9081,-163"/>
<polygon fill="#000000" stroke="#000000" points="372.9081,-166.5001 382.9081,-163 372.9081,-159.5001 372.9081,-166.5001"/>
</g>
<!-- ChatService -->
<g id="node9" class="node">
<title>ChatService</title>
<ellipse fill="#fdb462" stroke="#000000" cx="82" cy="-104" rx="58.4628" ry="18"/>
<text text-anchor="middle" x="82" y="-99.8" font-family="Times,serif" font-size="14.00" fill="#000000">ChatService</text>
</g>
<!-- ChatService&#45;&gt;AppModule -->
<g id="edge9" class="edge">
<title>ChatService&#45;&gt;AppModule</title>
<path fill="none" stroke="#000000" d="M82,-122.2843C82,-143.3211 82,-175 82,-175 82,-175 373.2844,-175 373.2844,-175"/>
<polygon fill="#000000" stroke="#000000" points="373.2844,-178.5001 383.2844,-175 373.2843,-171.5001 373.2844,-178.5001"/>
</g>
</g>
</svg>
